<?xml version="1.0" encoding="utf-8"?>
<!-- Generator: Adobe Illustrator 26.5.0, SVG Export Plug-In . SVG Version: 6.00 Build 0)  -->
<svg version="1.1" id="Layer_1" xmlns="http://www.w3.org/2000/svg" xmlns:xlink="http://www.w3.org/1999/xlink" x="0px" y="0px"
	 viewBox="0 220.46 595.28 335.92" style="enable-background:new 0 0 595.28 841.89;" xml:space="preserve">

<path fill="#0A0A0A" d="M1792.3,1168.14c3.53-1.79,7.2-3.34,10.57-5.39c15.95-9.73,24.59-24.51,28.08-42.38
	c8.91-45.7,17.57-91.44,26.23-137.19c1.08-5.7,1.59-11.5,2.47-18.06c1.1,0,2.7,0,4.31,0c30.15,0,60.3-0.16,90.44,0.08
	c11.53,0.09,22.83,1.96,33.28,7.47c14.7,7.76,21.78,20.36,22.16,36.46c0.72,30.28-18.18,52.82-50.3,60.39
	c20.65,29.68,38.27,61.33,66.07,86.38c-18.97,0-37.06,0.06-55.15-0.13c-1.35-0.01-3.12-1.58-3.96-2.9
	c-19.95-31.3-39.76-62.69-59.71-94c-3.46-5.42-7.41-10.53-11.78-16.71c2.5,0,4.22,0.04,5.94-0.01c13.47-0.35,26.98-0.18,40.39-1.34
	c5.9-0.51,11.97-2.98,17.24-5.89c7.96-4.4,11.27-11.93,10.47-21.07c-0.45-5.17-2.68-9.5-7.55-11.51c-4.41-1.82-9.14-3.82-13.78-3.94
	c-17.61-0.46-35.23-0.18-53.22-0.18c-4.08,21.32-8.18,42.85-12.33,64.36c-3.68,19.12-7.08,38.29-11.2,57.31
	c-5.52,25.43-22.16,40.48-46.85,46.39c-10.23,2.45-21.04,2.47-31.58,3.6C1792.44,1169.3,1792.37,1168.72,1792.3,1168.14z"/>
<path fill="#0A0A0A" d="M1606.23,964.97c17.88,0,34.83,0,52.15,0c-13.4,18.23-11.43,40.38-17.05,60.42c-0.45,1.58-0.6,3.25-0.97,5.3
	c21.68,0,43.18,0,65.22,0c2.87-14.55,5.68-29.21,8.7-43.84c1.48-7.19,1.47-14.17-1.95-21.39c17.23,0,34.07,0,51.41,0
	c-0.69,0.98-1.4,1.75-1.84,2.65c-2.83,5.76-6.89,11.27-8.17,17.36c-9.08,43.13-17.81,86.33-26.05,129.63
	c-1.21,6.34,0.81,13.29,1.35,20.22c-16.04,0-33.08,0-51.23,0c9.84-9.63,11.34-21.79,13.68-33.65c2.45-12.39,4.95-24.77,7.54-37.69
	c-21.58,0-42.93,0-65.29,0c-1.23,18.17-11.01,35.64-5.21,55.2c-9.65,0-19.38,0-29.73,0c1.34-11.48-2.8-21.66-5.25-32.28
	c-2.54-11.01-1.34-22.62,0.89-34.02c3.46-17.77,6.02-35.72,9.02-53.58c0.3-1.79,0.78-3.58,1.48-5.25
	C1608.83,984.74,1611.07,975.36,1606.23,964.97z"/>
<path fill="#0A0A0A" d="M1582.67,1145.53c4.26-0.22,8.52-0.43,13.54-0.69c0,2.43,0.31,4.42-0.06,6.27c-0.85,4.26,4.18,5.36,4.45,7.7
	c0.3,2.62-1.23,5.2,1.86,7.28c4.01,2.7,3.98,7.21,2.54,10.72c-0.8,1.94-4.66,3.33-7.31,3.66c-4.24,0.52-8.63,0.17-12.91-0.27
	c-1.64-0.17-4.53-1.66-4.5-2.43c0.39-7.77-8.04-14.1-3.5-22.67c0.79-1.49-0.61-5.15-2.13-6.66c-4.08-4.03-4.36-3.99-1.15-8.83
	c-4.18-2.06-4.48-5.4-3.32-9.57c0.6-2.14,0.28-4.66-0.08-6.93c-3.02-19.03-6.91-37.85-12.99-56.18c-2.77-8.35-5.05-16.87-7.75-25.24
	c-2.64-8.17-7.62-13.9-16.11-16.97c-6.17-2.23-11.76-6.06-17.57-9.24c-2.29-1.26-4.48-2.7-6.42-3.88
	c-2.31,9.75-4.63,19.17-6.72,28.63c-0.72,3.25-1.04,6.62-1.23,9.95c-0.05,0.91,0.97,1.92,1.61,2.81c3.76,5.22,2.94,8.1-3.01,10.57
	c1.25,4.45,2.66,8.87,3.72,13.36c1.28,5.44-0.25,8.07-5.7,8.94c-6.36,1.02-12.05,3.09-17.56,6.57c-5.78,3.65-12.59,4.15-19.34,3.21
	c-4.74-0.66-6.24-3.53-3.95-7.83c1.05-1.97,2.85-3.62,4.56-5.13c3.53-3.12,7.45-5.83,10.75-9.16c1.44-1.46,2.95-4.54,2.34-6.02
	c-2.39-5.79,1.44-4.19,4.2-4.04c0.64,0.04,1.27,0.31,2.75,0.69c-0.77-4.72-1.49-9-2.15-13.28c-0.28-1.79-0.78-3.63-0.62-5.4
	c0.71-8.1,1.51-16.2,2.48-24.27c1.15-9.57,2.27-19.15,3.85-28.66c1.84-11.09,6.1-14.35,17.31-14.15c1,0.02,2.04,0.24,2.99,0.02
	c5.06-1.14,7.81,2.96,11.51,4.91c0.92,0.48,1.97,0.72,1.6,0.59c1.94-3.66,2.9-7.52,5.37-9.4c1.51-1.15,5.33,0.72,9.44,1.48
	c-5.15-3.13-9.32-5.93-13.8-8.11c-0.78-0.38-2.85,1.87-4.74,3.19c-2.94-4.95-4.2-10.3-1.71-16.1c2.73-6.38,5.6-12.69,8.43-19.03
	c0.41-0.91,0.76-1.95,1.45-2.6c4.9-4.69,9.45-9.55,13.58-15.05c2.73-3.64,8.51-4.88,14.12-3.41c8.58,2.26,15.18,6.28,17.74,15.34
	c0.25,0.88,1.52,1.5,2.37,2.17c1.3,1.02,2.86,1.79,3.93,3c5.88,6.67,12.24,13.04,17.28,20.31c4.18,6.04,7.07,13.06,9.86,19.91
	c0.96,2.35,0.44,5.69-0.35,8.29c-1.54,5.06-3.79,9.9-5.65,14.87c-3.72,9.93-7.41,19.87-11.01,29.84c-0.36,0.99,0.04,2.24,0.08,3.37
	c0.46,11.44,0.9,22.88,1.38,34.32c0.43,10.44,0.5,20.79,4.06,31.01c2.23,6.39,1.96,13.68,2.62,20.59c0.54,5.67,0.8,11.37,1.2,17.05
	c0.02,0.32,0.21,0.62,0.3,0.93c0.58,2,2.18,5.24,1.54,5.76c-1.69,1.39-4.31,1.78-6.62,2.24c-2.23,0.44-4.53,0.47-6.81,0.67
	C1582.69,1144.87,1582.68,1145.2,1582.67,1145.53z M1554.12,998.99c-0.14,0.28-0.28,0.56-0.43,0.84c5.43,3.15,10.86,6.29,16.29,9.43
	c1.1-0.93,2.3-1.95,3.32-2.81c-2.15-2.62-4.17-5.09-6.41-7.81c-0.79,1.88-1.52,3.63-2.4,5.72
	C1560.92,1002.52,1557.52,1000.75,1554.12,998.99z M1541.02,987.77c-2.03-7.13-4.37-15.31-6.66-23.35
	C1531.02,968.85,1535.66,983.51,1541.02,987.77z"/>
<path fill="#0A0A0A" d="M1600.34,1127.21c9.83,0,20.09-0.03,30.36,0.06c0.8,0.01,1.88,0.72,2.36,1.43
	c10.57,15.6,26.39,22.42,43.99,25.67c23.21,4.28,46.15,3.04,67.96-6.71c20.34-9.09,35.69-23.35,41.52-45.58
	c3.11-11.87,4.74-24.12,7.1-36.19c5.1-26.1,10.18-52.21,15.4-78.28c1.5-7.5,1.6-14.78-2.05-22.19c17.05,0,33.56,0,50.48,0
	c-10.93,15.82-10.44,34.38-14.14,51.71c-6.41,30.07-11.45,60.44-17.67,90.55c-5.64,27.33-22.45,46.9-46.05,60.46
	c-43.93,25.22-89.87,27.58-136.91,9.58c-15.91-6.09-28.55-16.83-38.8-30.4c-0.49-0.65-1.23-1.32-1.33-2.05
	C1601.77,1139.4,1601.1,1133.51,1600.34,1127.21z"/>
<path d="M1554.12,998.99c3.4,1.76,6.8,3.53,10.37,5.38c0.88-2.09,1.61-3.84,2.4-5.72c2.23,2.72,4.26,5.19,6.41,7.81
	c-1.02,0.86-2.22,1.88-3.32,2.81c-5.42-3.14-10.86-6.29-16.29-9.43C1553.83,999.55,1553.97,999.27,1554.12,998.99z"/>
<path d="M1541.02,987.77c-5.37-4.26-10-18.91-6.66-23.35C1536.66,972.45,1538.99,980.63,1541.02,987.77z"/>
<g>
	<path fill="#0A0A0A" d="M324.29,477.09c1.73-0.77,2.61-1.18,3.51-1.57c14.67-6.29,23.85-17.3,27.09-32.83
		c7.12-34.09,13.92-68.25,20.84-102.39c0.89-4.4,1.74-8.81,2.67-13.53c1.05-0.07,2.17-0.22,3.29-0.22c19.43,0,38.87-0.1,58.3,0.11
		c5.11,0.06,10.3,0.66,15.29,1.75c24.04,5.29,34.59,28.44,23.41,50.95c-5.44,10.96-14.26,17.98-25.65,22.01
		c-1.69,0.6-3.41,1.12-5.11,1.69c-0.11,0.04-0.19,0.16-0.56,0.5c15.45,21.66,28.19,45.44,49.93,63.6c-2.58,0-4.29,0-6,0
		c-10.68-0.01-21.36-0.12-32.04,0.04c-2.67,0.04-4.13-0.9-5.53-3.07c-14.45-22.5-28.97-44.96-43.53-67.39
		c-2.77-4.27-5.78-8.37-9.13-13.2c6.7,0,12.72,0.29,18.69-0.08c6.51-0.41,13.14-0.81,19.44-2.35c7.13-1.74,12.86-5.89,14.61-13.78
		c1.43-6.46-1.07-12.04-7.29-14.36c-3.89-1.45-8.23-2.22-12.39-2.36c-10.03-0.33-20.07-0.05-30.11-0.18
		c-2.42-0.03-3.23,0.74-3.72,3.13c-6.04,29.19-12.04,58.38-18.41,87.5c-4.34,19.85-21.06,34.23-41.33,35.95
		C335.48,477.46,330.34,477.09,324.29,477.09z"/>
	<path fill="#0A0A0A" d="M295.78,365.17c2.83-13.07,2.13-27.39,12.57-38.45c-12.85,0-25.12,0-37.92,0c3.51,6.98,2.17,13.8,0.8,20.65
		c-1.84,9.15-3.61,18.32-5.38,27.33c-15.15,0-29.85,0-45.01,0c1.64-8.73,3.03-17.07,4.83-25.32c1.24-5.73,2.86-11.39,4.67-16.96
		c0.66-2.03,2.39-3.71,3.78-5.77c-9.37,0-18.38,0-27.56,0c0.35,1.03,0.68,2.06,0.98,3.1c1.78,6.08-1.22,11.72-4.21,16.75
		c-4.87,8.19-6.47,17.4-8.88,26.32c-0.94,3.49,0.65,7.6,0.77,11.44c0.29,9.09,0.27,18.19,0.62,27.28c0.12,3.19,0.49,6.51,1.52,9.5
		c2.04,5.94,2.48,12.01,2.81,18.13c3.91,0,7.82,0,11.77,0c-3.24-13.86,2.82-26.44,4.07-39.68c15.19,0,29.93,0,45.11,0
		c-0.7,3.92-1.1,7.61-2.05,11.16c-3.68,13.67-2.51,28.84-12.88,40.83c12.75,0,25.01,0,37.73,0c-2.87-5.35-3.08-10.71-1.97-16.3
		C286.58,411.84,290.75,388.41,295.78,365.17z"/>
	<path fill="#0A0A0A" d="M206.36,482.56c-0.57-1.79-2.34-3.2-3.82-5.1c1.36-0.47-1.2-3.75-1.37-5.54c-0.22-2.35-0.63-1.41-0.42-4.21
		c0.22-2.97,1.19-6.44,0.04-8.84c-2.22-4.63-2.47-9.48-2.75-14.22c-0.46-7.7-0.5-15.35-3.06-22.8c-1.03-2.99-1.4-6.31-1.52-9.5
		c-0.35-9.09-0.33-18.19-0.62-27.28c-0.12-3.84-1.71-7.96-0.77-11.44c2.41-8.91,4.01-18.13,8.88-26.32
		c2.99-5.03,5.99-10.67,4.21-16.75c-1.59-5.46-3.84-10.92-6.84-15.74c-3.49-5.6-8.08-10.52-12.26-15.68
		c-0.71-0.87-1.8-1.42-2.65-2.2c-0.72-0.66-1.72-1.31-1.96-2.15c-2.09-7.42-7.67-10.47-14.58-11.99c-5.48-1.2-12.09,2.92-13.7,8.37
		c-0.34,1.16-1.54,2.1-2.4,3.08c-2.08,2.37-4.72,4.43-6.18,7.12c-2.42,4.47-3.86,9.45-6.13,14.01c-2.11,4.24-1.52,8.2,0.18,12.23
		c0.23,0.55,1.01,0.87,1.53,1.29c0.32-0.41,0.85-0.79,0.93-1.25c0.39-2.36,1.89-2.22,3.38-1.39c2.45,1.37,4.76,2.96,7.13,4.46
		c-5.29-1.33-8.66,1.5-8.9,8.14c-0.81-0.23-1.34-0.24-1.69-0.5c-3.36-2.5-6.73-4.18-11.32-3.99c-9.55,0.4-13.54,3.45-14.88,13.04
		c-1.53,10.92-3.33,21.83-4.24,32.81c-0.43,5.22-4.02,19.53-1.73,25.18c1.1,2.72,0.96-3.03,0.96-0.32c-2.1,0.44-0.95,0.7-2.93,1.12
		c0.55,0.7-2.04,1.54-1.41,2.35c-2.87,5.96-4.97,8.22-11.62,12.67c-1.84,1.24-3.46,3.09-4.62,5c-1.66,2.73-0.66,4.67,2.52,5.37
		c5.31,1.17,10.83,1.07,15.38-1.76c4.9-3.05,9.97-5.05,15.5-6.41c3.92-0.96,4.87-3,4.02-6.97c-0.8-3.71-1.73-7.39-2.58-10.99
		c0.26-3.34-0.17-5.43,1.06-9.38c0.34-1.1,0.56-2.4,0.73-3.44c0.77-4.73,1.71-9.45,2.82-14.12c1.39-5.88,3-11.7,4.37-16.99
		c6.67,3.28,13.21,7.19,20.24,9.76c6.22,2.27,9.92,6.23,11.83,12.14c6.61,20.4,13.71,40.68,15.99,62.19
		c0.25,2.39,0.05,4.86,0.02,7.21c-0.04,2.81,0.94,4.88,2.58,7.17c0.11,1.8-0.55,2.95,0.28,6.76c0.43,1.98,1.68,4.15,1.7,6.28
		c0.03,4.1,2.82,4.64,1.98,11.93c-0.07,0.58,0.34,1.89,0.17,2.82c-0.54,3.04,0.71,4.82,3.7,5.09c3.44,0.32,6.93,0.65,10.35,0.37
		c1.94-0.16,5.15-1.27,5.38-2.44C207.82,488.23,207.21,485.2,206.36,482.56z M153.64,323.25c0.32-0.02,0.64-0.05,0.96-0.07
		c1.14,4.67,2.27,9.34,3.6,14.8C154.97,332.92,153.05,328.39,153.64,323.25z M180.98,357.47c-2.74-2.17-4.56-4.48-1.89-7.74
		c1.34,1.79,2.68,3.57,4.2,5.6C182.64,355.93,181.77,356.73,180.98,357.47z"/>
	<g>
		<path fill="#0A0A0A" d="M339.76,345.05h28.7c1.65-6.32,3.88-12.49,7.23-18.35c-11.94,0-24.13,0-36.84,0
			C341.85,332.9,341,338.94,339.76,345.05z"/>
		<path fill="#0A0A0A" d="M337.81,354.56c-4.67,22.64-9.41,45.27-13.61,68c-2.85,15.44-10.81,27-23.7,35.39
			c-16.63,10.82-35.04,12.94-54.1,9.59c-12.98-2.29-24.61-7.49-31.45-19.89c-0.31-0.56-1.14-1.17-1.74-1.17
			c-4.36-0.06-8.73-0.06-13.08-0.06c0.27,3.97,0.75,7.97,2.61,11.83c1.15,2.39,0.18,5.87-0.04,8.84c-0.21,2.8-0.22,5.17,2.9,6.68
			c1.01,0.49,1.86,1.4,1.4,2.12c6.78,6,14.87,10.15,23.87,12.71c30.54,8.68,59.87,5.72,87.17-11.07
			c16.38-10.07,28.14-24.23,32.7-43.15c4.04-16.72,6.44-33.84,10.4-50.58c2.27-9.61,3.39-19.52,5.21-29.24H337.81z"/>
		<path fill="#0A0A0A" d="M339.39,346.85c-0.15,0.71-0.29,1.42-0.44,2.13h28.56c0.16-0.71,0.33-1.42,0.5-2.13H339.39z"/>
		<path fill="#0A0A0A" d="M366.71,352.76c0.13-0.66,0.27-1.31,0.4-1.97h-28.53c-0.14,0.66-0.27,1.31-0.41,1.97H366.71z"/>
	</g>
</g>
</svg>
